<svg width="282" height="282" viewBox="0 0 282 282" fill="none" xmlns="http://www.w3.org/2000/svg">
<rect width="282" height="282" rx="30" fill="#FE5659"/>
<path d="M52.5442 194C51.7956 194 50.6354 193.875 49.0634 193.625C47.8657 192.206 46.7803 190.287 45.8071 187.867C44.9088 185.364 44.1977 182.735 43.6737 179.982C43.2246 177.145 43 174.349 43 171.596C43.0749 168.759 43.524 166.256 44.3474 164.086C44.3474 164.003 44.6843 163.001 45.358 161.082C46.1065 159.163 47.0423 156.743 48.1651 153.823C49.288 150.819 50.5605 147.523 51.9828 143.935C53.4051 140.263 54.8273 136.675 56.2496 133.171C57.6719 129.666 59.0193 126.495 60.2919 123.658C61.6393 120.738 62.7996 118.485 63.7727 116.9C64.4464 115.731 65.0453 114.605 65.5693 113.52C66.1681 112.435 66.7295 111.434 67.2535 110.516C68.077 109.014 68.8255 107.638 69.4992 106.386C70.2478 105.051 71.0338 103.883 71.8572 102.881C72.7555 101.797 73.7286 100.879 74.7766 100.128C75.8246 99.2934 77.0972 98.5841 78.5943 98C79.4926 98.4172 80.2786 98.8761 80.9523 99.3768C81.626 99.794 82.2249 100.336 82.7488 101.004L83.0857 102.756C83.2354 103.34 83.46 103.757 83.7594 104.008C84.1337 104.175 84.4331 104.258 84.6577 104.258C85.6308 104.508 86.4543 104.801 87.128 105.134C87.8765 105.385 88.6625 105.551 89.4859 105.635C89.7854 106.136 90.0474 106.636 90.2719 107.137C90.5714 107.638 90.8708 108.096 91.1702 108.514C92.6673 110.934 93.9025 113.27 94.8756 115.523C95.8488 117.776 95.8488 120.237 94.8756 122.907L94.9879 124.284C95.3622 124.868 95.5493 125.411 95.5493 125.911C95.5493 126.412 95.4745 127.121 95.3248 128.039C95.2499 128.707 95.175 129.458 95.1002 130.292C95.1002 131.043 95.2125 131.877 95.437 132.795L96.223 133.797C97.4207 134.464 98.581 134.798 99.7039 134.798C101.201 134.798 102.548 134.422 103.746 133.671C104.944 132.92 106.067 132.169 107.115 131.419C107.938 130.751 108.687 130.209 109.36 129.791C110.109 129.374 110.82 129.082 111.494 128.915C113.066 127.246 114.488 125.786 115.761 124.535C117.108 123.199 118.493 121.864 119.915 120.529C122.61 118.11 125.23 115.523 127.775 112.769C130.32 109.932 132.341 106.428 133.838 102.256C134.662 101.671 135.598 101.379 136.646 101.379C137.694 101.379 138.742 101.63 139.79 102.13C140.838 102.548 141.886 103.048 142.934 103.632C143.158 103.799 143.345 103.924 143.495 104.008C143.72 104.091 143.944 104.216 144.169 104.383C144.169 105.301 144.506 106.136 145.179 106.887C145.554 107.22 145.816 107.429 145.965 107.512C146.115 107.596 146.265 107.679 146.414 107.763C147.013 108.18 147.5 108.555 147.874 108.889C148.323 109.223 148.66 109.682 148.885 110.266C149.558 112.519 150.681 114.271 152.253 115.523C152.103 116.441 152.141 117.359 152.365 118.276C152.59 119.111 152.852 119.945 153.151 120.78C153.301 121.113 153.413 121.447 153.488 121.781C153.563 122.031 153.675 122.365 153.825 122.782L151.355 122.532L151.692 125.286C151.916 126.704 151.804 128.289 151.355 130.042C150.981 131.794 150.531 133.171 150.007 134.172C150.157 136.675 150.232 138.678 150.232 140.18C150.232 141.598 150.157 142.934 150.007 144.185C149.858 145.437 149.596 146.647 149.222 147.815C148.922 148.9 148.51 150.068 147.986 151.319C148.286 157.661 147.612 163.46 145.965 168.717C144.393 173.974 142.672 178.897 140.8 183.486C140.576 184.07 140.351 184.613 140.126 185.113C139.902 185.614 139.715 186.115 139.565 186.615C138.742 186.866 137.993 187.158 137.319 187.492C136.646 187.825 136.009 188.201 135.41 188.618C134.587 189.202 133.764 189.703 132.94 190.12C132.117 190.454 131.256 190.621 130.358 190.621C126.765 187.7 124.893 182.652 124.743 175.476C124.669 168.3 126.053 159.163 128.898 148.065C129.422 147.648 129.647 147.022 129.572 146.188V144.811L128.449 144.686C128.075 144.686 127.738 144.728 127.438 144.811C127.139 144.894 126.914 145.27 126.765 145.937C124.369 147.857 121.749 149.859 118.905 151.945C116.135 153.948 113.253 155.825 110.259 157.578C107.264 159.246 104.195 160.665 101.051 161.833C97.9822 162.918 94.9879 163.46 92.0685 163.46C84.5828 163.46 78.9312 159.205 75.1135 150.694L74.1029 148.441L72.9801 150.443C72.7555 150.86 72.3438 151.695 71.7449 152.947C71.2209 154.115 70.6595 155.492 70.0607 157.077C69.5367 158.662 69.0501 160.289 68.601 161.958C68.2267 163.627 68.1144 165.087 68.2641 166.339C67.3658 167.257 66.4675 168.3 65.5693 169.468C64.7458 170.636 64.147 171.971 63.7727 173.473C63.623 173.89 63.5856 174.308 63.6604 174.725C63.7353 175.059 63.8476 175.434 63.9973 175.851C63.9224 176.435 63.7727 176.853 63.5481 177.103C63.3236 177.353 63.0616 177.604 62.7621 177.854C62.3879 178.271 62.0136 178.73 61.6393 179.231C61.265 179.648 60.9282 180.149 60.6287 180.733C60.479 181.233 60.3667 181.776 60.2919 182.36C60.217 182.86 60.1422 183.319 60.0673 183.737C60.0673 184.655 59.955 185.28 59.7304 185.614C58.9819 187.366 58.3082 188.827 57.7093 189.995C57.1853 191.08 56.6613 191.914 56.1373 192.498C55.6133 193.082 55.0519 193.458 54.4531 193.625C53.9291 193.875 53.2928 194 52.5442 194Z" fill="#F2F2F2"/>
<path d="M149.734 169.343C149.808 169.009 149.846 168.759 149.846 168.592C149.921 168.425 149.808 168.216 149.509 167.966C149.359 167.382 149.472 167.007 149.846 166.84C150.22 166.673 150.594 166.506 150.969 166.339C151.343 161.332 152.091 156.785 153.214 152.696C154.412 148.524 155.685 144.477 157.032 140.555C158.454 136.634 159.839 132.712 161.187 128.79C162.609 124.785 163.769 120.446 164.667 115.773C165.641 114.688 166.427 113.395 167.025 111.893C167.699 110.391 168.335 108.889 168.934 107.387C169.608 105.802 170.357 104.3 171.18 102.881C172.078 101.463 173.276 100.295 174.773 99.3768C175.447 99.4602 176.046 99.6271 176.57 99.8774C177.168 100.044 177.73 100.253 178.254 100.503C178.778 100.754 179.339 100.962 179.938 101.129C180.537 101.296 181.173 101.379 181.847 101.379C182.146 101.797 182.408 102.297 182.633 102.881C182.858 103.382 183.157 103.841 183.531 104.258L185.552 103.883C186.526 104.801 187.386 105.969 188.135 107.387C188.884 108.722 189.408 110.141 189.707 111.643C190.006 113.061 189.969 114.48 189.595 115.898C189.22 117.233 188.36 118.276 187.012 119.027C187.087 119.528 187.087 119.904 187.012 120.154C186.937 120.404 186.825 120.654 186.675 120.905C186.6 121.072 186.563 121.28 186.563 121.531C186.563 121.698 186.713 121.948 187.012 122.282C186.189 123.033 185.44 123.992 184.766 125.16C184.093 126.245 183.531 127.413 183.082 128.665C182.633 129.917 182.259 131.168 181.959 132.42C181.735 133.671 181.585 134.84 181.51 135.924C183.681 133.421 186.226 131.085 189.146 128.915C192.065 126.746 194.61 124.701 196.781 122.782C198.503 121.447 200 120.196 201.272 119.027C202.62 117.776 203.967 116.649 205.315 115.648C206.662 114.563 208.047 113.562 209.469 112.644C210.966 111.643 212.463 110.558 213.96 109.39C214.709 109.056 215.27 108.973 215.645 109.14C216.094 109.306 216.506 109.515 216.88 109.765C216.955 109.181 216.842 108.847 216.543 108.764C216.244 108.597 216.131 108.18 216.206 107.512C217.479 107.095 218.602 106.595 219.575 106.01C220.623 105.426 221.708 104.884 222.831 104.383C223.58 105.301 224.328 106.302 225.077 107.387C225.825 108.389 226.836 108.931 228.108 109.014C228.558 110.099 229.081 110.934 229.68 111.518C230.354 112.018 230.99 112.519 231.589 113.02C232.263 113.52 232.824 114.146 233.273 114.897C233.723 115.565 233.985 116.649 234.059 118.151C233.76 118.819 233.386 119.57 232.937 120.404C232.562 121.155 232.225 122.115 231.926 123.283C230.129 125.119 228.296 126.746 226.424 128.164C224.628 129.499 222.756 130.793 220.81 132.044C218.938 133.296 216.992 134.589 214.971 135.924C213.025 137.259 211.041 138.803 209.02 140.555C208.571 141.306 208.009 141.974 207.336 142.558C206.662 143.142 205.951 143.726 205.202 144.31C204.529 144.811 203.855 145.353 203.181 145.937C202.582 146.522 202.096 147.231 201.721 148.065C201.422 148.065 201.16 148.107 200.935 148.19C200.711 148.19 200.449 148.232 200.149 148.316C199.85 148.983 199.401 149.525 198.802 149.943C198.278 150.36 197.904 150.902 197.679 151.57C199.027 154.824 200.786 157.286 202.957 158.954C205.127 160.623 207.56 161.833 210.255 162.584C212.95 163.335 215.869 163.752 219.013 163.836C222.157 163.919 225.414 163.961 228.782 163.961C229.156 163.877 229.306 163.669 229.231 163.335C229.231 162.918 229.456 162.751 229.905 162.834C231.028 163.252 231.963 163.752 232.712 164.336C233.461 164.92 234.172 165.546 234.845 166.214C235.519 166.881 236.155 167.591 236.754 168.342C237.428 169.009 238.177 169.718 239 170.469C238.85 174.391 237.802 177.604 235.856 180.107C233.985 182.527 231.477 184.488 228.333 185.99C223.991 186.156 220.211 186.031 216.992 185.614C213.773 185.197 210.592 184.279 207.448 182.86C207.223 182.777 206.999 182.527 206.774 182.11C206.625 181.692 206.475 181.4 206.325 181.233C205.726 180.816 205.053 180.649 204.304 180.733C203.555 180.816 202.919 180.733 202.395 180.482C201.721 180.149 200.599 179.398 199.027 178.229C197.529 177.061 196.145 175.977 194.872 174.975C193.3 173.557 191.765 172.18 190.268 170.845C188.846 169.426 187.574 167.883 186.451 166.214C186.226 165.797 185.889 165.588 185.44 165.588C185.066 165.588 184.692 165.463 184.317 165.213C181.697 167.048 179.489 169.343 177.692 172.096C175.971 174.767 174.286 177.52 172.64 180.357C170.993 183.111 169.234 185.739 167.362 188.243C165.566 190.662 163.283 192.54 160.513 193.875C159.689 193.875 158.978 193.708 158.379 193.374C157.781 193.124 157.219 192.748 156.695 192.248C156.171 191.831 155.647 191.413 155.123 190.996C154.599 190.579 154 190.287 153.327 190.12C153.327 188.952 153.102 187.867 152.653 186.866C152.279 185.781 151.867 184.821 151.418 183.987C151.044 183.069 150.744 182.193 150.52 181.359C150.37 180.524 150.594 179.69 151.193 178.855C150.37 178.104 149.584 177.478 148.835 176.978C149.359 176.394 149.584 175.851 149.509 175.351C149.509 174.85 149.397 174.349 149.172 173.849C148.948 173.348 148.76 172.847 148.611 172.347C148.536 171.763 148.686 171.137 149.06 170.469C149.359 170.386 149.472 170.219 149.397 169.969C149.397 169.718 149.509 169.51 149.734 169.343Z" fill="#F2F2F2"/>
</svg>
